<mxfile host="app.diagrams.net" agent="Mozilla/5.0 (Windows NT 10.0; Win64; x64; rv:139.0) Gecko/20100101 Firefox/139.0" version="27.1.4">
  <diagram name="Seite-1" id="9evC7_lMdCyZLtRoNJ1Q">
    <mxGraphModel dx="895" dy="631" grid="1" gridSize="10" guides="1" tooltips="1" connect="1" arrows="1" fold="1" page="1" pageScale="1" pageWidth="827" pageHeight="1169" math="0" shadow="0">
      <root>
        <mxCell id="0" />
        <mxCell id="1" parent="0" />
        <mxCell id="dEbl5OzVnvIsQNyByaN4-7" style="rounded=0;orthogonalLoop=1;jettySize=auto;html=1;exitX=1;exitY=0.3333333333333333;exitDx=0;exitDy=0;exitPerimeter=0;entryX=0;entryY=0.5;entryDx=0;entryDy=0;endArrow=none;startFill=0;" edge="1" parent="1" source="dEbl5OzVnvIsQNyByaN4-1">
          <mxGeometry relative="1" as="geometry">
            <mxPoint x="149" y="100" as="targetPoint" />
          </mxGeometry>
        </mxCell>
        <mxCell id="dEbl5OzVnvIsQNyByaN4-1" value="TODO #1" style="shape=umlActor;verticalLabelPosition=bottom;verticalAlign=top;html=1;" vertex="1" parent="1">
          <mxGeometry x="89" y="80" width="30" height="60" as="geometry" />
        </mxCell>
        <mxCell id="dEbl5OzVnvIsQNyByaN4-2" value="Login eines registrierten Users" style="ellipse;whiteSpace=wrap;html=1;" vertex="1" parent="1">
          <mxGeometry x="149" y="65" width="140" height="70" as="geometry" />
        </mxCell>
        <mxCell id="dEbl5OzVnvIsQNyByaN4-15" style="rounded=0;orthogonalLoop=1;jettySize=auto;html=1;endArrow=none;startFill=0;dashed=1;entryX=0;entryY=0;entryDx=61;entryDy=25;entryPerimeter=0;" edge="1" parent="1" target="dEbl5OzVnvIsQNyByaN4-21">
          <mxGeometry relative="1" as="geometry">
            <mxPoint x="339" y="100" as="targetPoint" />
            <mxPoint x="219" y="180" as="sourcePoint" />
          </mxGeometry>
        </mxCell>
        <mxCell id="dEbl5OzVnvIsQNyByaN4-5" style="edgeStyle=orthogonalEdgeStyle;rounded=0;orthogonalLoop=1;jettySize=auto;html=1;exitX=0.5;exitY=1;exitDx=0;exitDy=0;exitPerimeter=0;" edge="1" parent="1">
          <mxGeometry relative="1" as="geometry">
            <mxPoint x="339" y="40" as="sourcePoint" />
            <mxPoint x="339" y="40" as="targetPoint" />
          </mxGeometry>
        </mxCell>
        <mxCell id="dEbl5OzVnvIsQNyByaN4-19" value="extends" style="edgeStyle=orthogonalEdgeStyle;rounded=0;orthogonalLoop=1;jettySize=auto;html=1;exitX=0.5;exitY=0;exitDx=0;exitDy=0;entryX=0.5;entryY=1;entryDx=0;entryDy=0;dashed=1;" edge="1" parent="1" source="dEbl5OzVnvIsQNyByaN4-17" target="dEbl5OzVnvIsQNyByaN4-2">
          <mxGeometry relative="1" as="geometry" />
        </mxCell>
        <mxCell id="dEbl5OzVnvIsQNyByaN4-45" value="extends" style="edgeStyle=orthogonalEdgeStyle;rounded=0;orthogonalLoop=1;jettySize=auto;html=1;exitX=1;exitY=0;exitDx=0;exitDy=0;entryX=0.5;entryY=0;entryDx=0;entryDy=0;dashed=1;curved=1;" edge="1" parent="1" source="dEbl5OzVnvIsQNyByaN4-17" target="dEbl5OzVnvIsQNyByaN4-31">
          <mxGeometry relative="1" as="geometry">
            <Array as="points">
              <mxPoint x="269" y="40" />
              <mxPoint x="689" y="40" />
            </Array>
          </mxGeometry>
        </mxCell>
        <mxCell id="dEbl5OzVnvIsQNyByaN4-17" value="Projektauschreibung einstellen" style="ellipse;whiteSpace=wrap;html=1;" vertex="1" parent="1">
          <mxGeometry x="149" y="200" width="140" height="70" as="geometry" />
        </mxCell>
        <mxCell id="dEbl5OzVnvIsQNyByaN4-21" value="&lt;div align=&quot;left&quot;&gt;Button&lt;/div&gt;" style="shape=note;size=20;whiteSpace=wrap;html=1;align=left;" vertex="1" parent="1">
          <mxGeometry x="140" y="160" width="61" height="30" as="geometry" />
        </mxCell>
        <mxCell id="dEbl5OzVnvIsQNyByaN4-22" value="Erstellung Selbstständiger" style="ellipse;whiteSpace=wrap;html=1;" vertex="1" parent="1">
          <mxGeometry x="389" y="200" width="140" height="70" as="geometry" />
        </mxCell>
        <mxCell id="dEbl5OzVnvIsQNyByaN4-23" value="Erstellung Fenstanstellung" style="ellipse;whiteSpace=wrap;html=1;" vertex="1" parent="1">
          <mxGeometry x="389" y="65" width="140" height="70" as="geometry" />
        </mxCell>
        <mxCell id="dEbl5OzVnvIsQNyByaN4-24" value="extends" style="endArrow=classic;html=1;rounded=0;exitX=0;exitY=0.5;exitDx=0;exitDy=0;entryX=1;entryY=0.5;entryDx=0;entryDy=0;dashed=1;" edge="1" parent="1" source="dEbl5OzVnvIsQNyByaN4-22" target="dEbl5OzVnvIsQNyByaN4-17">
          <mxGeometry width="50" height="50" relative="1" as="geometry">
            <mxPoint x="169" y="260" as="sourcePoint" />
            <mxPoint x="219" y="210" as="targetPoint" />
          </mxGeometry>
        </mxCell>
        <mxCell id="dEbl5OzVnvIsQNyByaN4-25" value="extends" style="endArrow=classic;html=1;rounded=0;exitX=0;exitY=1;exitDx=0;exitDy=0;entryX=1;entryY=0;entryDx=0;entryDy=0;dashed=1;" edge="1" parent="1" source="dEbl5OzVnvIsQNyByaN4-23" target="dEbl5OzVnvIsQNyByaN4-17">
          <mxGeometry width="50" height="50" relative="1" as="geometry">
            <mxPoint x="369" y="240" as="sourcePoint" />
            <mxPoint x="309" y="240" as="targetPoint" />
          </mxGeometry>
        </mxCell>
        <mxCell id="dEbl5OzVnvIsQNyByaN4-26" value="&lt;div&gt;Festanstellung&lt;/div&gt;&lt;div&gt;ausgeswählt&lt;/div&gt;" style="shape=note;size=20;whiteSpace=wrap;html=1;" vertex="1" parent="1">
          <mxGeometry x="399" y="140" width="120" height="50" as="geometry" />
        </mxCell>
        <mxCell id="dEbl5OzVnvIsQNyByaN4-28" value="&lt;div&gt;Selbstständiger&lt;/div&gt;&lt;div&gt;ausgewählt&lt;/div&gt;" style="shape=note;size=20;whiteSpace=wrap;html=1;" vertex="1" parent="1">
          <mxGeometry x="299" y="270" width="130" height="50" as="geometry" />
        </mxCell>
        <mxCell id="dEbl5OzVnvIsQNyByaN4-29" style="rounded=0;orthogonalLoop=1;jettySize=auto;html=1;endArrow=none;startFill=0;dashed=1;entryX=0;entryY=0;entryDx=40;entryDy=0;entryPerimeter=0;" edge="1" parent="1" target="dEbl5OzVnvIsQNyByaN4-28">
          <mxGeometry relative="1" as="geometry">
            <mxPoint x="239" y="190" as="targetPoint" />
            <mxPoint x="339" y="240" as="sourcePoint" />
          </mxGeometry>
        </mxCell>
        <mxCell id="dEbl5OzVnvIsQNyByaN4-30" style="rounded=0;orthogonalLoop=1;jettySize=auto;html=1;endArrow=none;startFill=0;dashed=1;" edge="1" parent="1">
          <mxGeometry relative="1" as="geometry">
            <mxPoint x="359" y="170" as="targetPoint" />
            <mxPoint x="399" y="170" as="sourcePoint" />
          </mxGeometry>
        </mxCell>
        <mxCell id="dEbl5OzVnvIsQNyByaN4-31" value="Beschreibung erstellen" style="ellipse;whiteSpace=wrap;html=1;" vertex="1" parent="1">
          <mxGeometry x="619" y="140" width="140" height="70" as="geometry" />
        </mxCell>
        <mxCell id="dEbl5OzVnvIsQNyByaN4-33" value="extends" style="endArrow=classic;html=1;rounded=0;exitX=0;exitY=0.5;exitDx=0;exitDy=0;entryX=1;entryY=0.5;entryDx=0;entryDy=0;dashed=1;" edge="1" parent="1" source="dEbl5OzVnvIsQNyByaN4-31" target="dEbl5OzVnvIsQNyByaN4-22">
          <mxGeometry width="50" height="50" relative="1" as="geometry">
            <mxPoint x="459" y="220" as="sourcePoint" />
            <mxPoint x="359" y="220" as="targetPoint" />
          </mxGeometry>
        </mxCell>
        <mxCell id="dEbl5OzVnvIsQNyByaN4-34" value="extends" style="endArrow=classic;html=1;rounded=0;exitX=0;exitY=0.5;exitDx=0;exitDy=0;entryX=1;entryY=0.5;entryDx=0;entryDy=0;dashed=1;" edge="1" parent="1" source="dEbl5OzVnvIsQNyByaN4-31" target="dEbl5OzVnvIsQNyByaN4-23">
          <mxGeometry width="50" height="50" relative="1" as="geometry">
            <mxPoint x="719" y="200" as="sourcePoint" />
            <mxPoint x="619" y="200" as="targetPoint" />
          </mxGeometry>
        </mxCell>
        <mxCell id="dEbl5OzVnvIsQNyByaN4-36" value="&lt;div align=&quot;left&quot;&gt;&lt;font&gt;Button&lt;/font&gt;&lt;/div&gt;" style="shape=note;size=20;whiteSpace=wrap;html=1;align=left;" vertex="1" parent="1">
          <mxGeometry x="529" y="150" width="60" height="30" as="geometry" />
        </mxCell>
        <mxCell id="dEbl5OzVnvIsQNyByaN4-37" style="rounded=0;orthogonalLoop=1;jettySize=auto;html=1;endArrow=none;startFill=0;dashed=1;entryX=0;entryY=0;entryDx=20;entryDy=0;entryPerimeter=0;" edge="1" parent="1" target="dEbl5OzVnvIsQNyByaN4-36">
          <mxGeometry relative="1" as="geometry">
            <mxPoint x="179" y="170" as="targetPoint" />
            <mxPoint x="549" y="120" as="sourcePoint" />
          </mxGeometry>
        </mxCell>
        <mxCell id="dEbl5OzVnvIsQNyByaN4-38" style="rounded=0;orthogonalLoop=1;jettySize=auto;html=1;endArrow=none;startFill=0;dashed=1;entryX=0.5;entryY=1;entryDx=0;entryDy=0;entryPerimeter=0;" edge="1" parent="1" target="dEbl5OzVnvIsQNyByaN4-36">
          <mxGeometry relative="1" as="geometry">
            <mxPoint x="259" y="180" as="targetPoint" />
            <mxPoint x="579" y="200" as="sourcePoint" />
          </mxGeometry>
        </mxCell>
        <mxCell id="dEbl5OzVnvIsQNyByaN4-49" value="extends" style="edgeStyle=orthogonalEdgeStyle;rounded=0;orthogonalLoop=1;jettySize=auto;html=1;entryX=1;entryY=0.5;entryDx=0;entryDy=0;dashed=1;curved=1;exitX=1;exitY=0.5;exitDx=0;exitDy=0;" edge="1" parent="1" source="dEbl5OzVnvIsQNyByaN4-31" target="dEbl5OzVnvIsQNyByaN4-40">
          <mxGeometry relative="1" as="geometry">
            <mxPoint x="760" y="220" as="sourcePoint" />
            <Array as="points">
              <mxPoint x="759" y="180" />
              <mxPoint x="780" y="180" />
              <mxPoint x="780" y="315" />
            </Array>
          </mxGeometry>
        </mxCell>
        <mxCell id="dEbl5OzVnvIsQNyByaN4-40" value="Übersicht über eingegebene Daten erhalten" style="ellipse;whiteSpace=wrap;html=1;" vertex="1" parent="1">
          <mxGeometry x="549" y="280" width="140" height="70" as="geometry" />
        </mxCell>
        <mxCell id="dEbl5OzVnvIsQNyByaN4-41" value="extends" style="endArrow=classic;html=1;rounded=0;entryX=0.5;entryY=1;entryDx=0;entryDy=0;dashed=1;exitX=0.5;exitY=0;exitDx=0;exitDy=0;" edge="1" parent="1" source="dEbl5OzVnvIsQNyByaN4-40" target="dEbl5OzVnvIsQNyByaN4-31">
          <mxGeometry width="50" height="50" relative="1" as="geometry">
            <mxPoint x="689" y="330" as="sourcePoint" />
            <mxPoint x="589" y="270" as="targetPoint" />
          </mxGeometry>
        </mxCell>
        <mxCell id="dEbl5OzVnvIsQNyByaN4-42" value="&lt;div align=&quot;left&quot;&gt;&lt;font&gt;Button&lt;/font&gt;&lt;/div&gt;" style="shape=note;size=20;whiteSpace=wrap;html=1;align=left;" vertex="1" parent="1">
          <mxGeometry x="679" y="250" width="71" height="30" as="geometry" />
        </mxCell>
        <mxCell id="dEbl5OzVnvIsQNyByaN4-43" style="rounded=0;orthogonalLoop=1;jettySize=auto;html=1;endArrow=none;startFill=0;dashed=1;entryX=0;entryY=0.5;entryDx=0;entryDy=0;entryPerimeter=0;" edge="1" parent="1" target="dEbl5OzVnvIsQNyByaN4-42">
          <mxGeometry relative="1" as="geometry">
            <mxPoint x="589" y="190" as="targetPoint" />
            <mxPoint x="639" y="260" as="sourcePoint" />
          </mxGeometry>
        </mxCell>
        <mxCell id="dEbl5OzVnvIsQNyByaN4-46" value="&lt;div align=&quot;left&quot;&gt;&lt;font&gt;Button&lt;/font&gt;&lt;/div&gt;" style="shape=note;size=20;whiteSpace=wrap;html=1;align=left;" vertex="1" parent="1">
          <mxGeometry x="679" y="20" width="61" height="30" as="geometry" />
        </mxCell>
        <mxCell id="dEbl5OzVnvIsQNyByaN4-48" style="rounded=0;orthogonalLoop=1;jettySize=auto;html=1;endArrow=none;startFill=0;dashed=1;exitX=0;exitY=1;exitDx=0;exitDy=0;exitPerimeter=0;" edge="1" parent="1" source="dEbl5OzVnvIsQNyByaN4-46">
          <mxGeometry relative="1" as="geometry">
            <mxPoint x="659" y="80" as="targetPoint" />
            <mxPoint x="679" y="260" as="sourcePoint" />
          </mxGeometry>
        </mxCell>
        <mxCell id="dEbl5OzVnvIsQNyByaN4-50" style="rounded=0;orthogonalLoop=1;jettySize=auto;html=1;endArrow=none;startFill=0;dashed=1;exitX=0;exitY=0;exitDx=71;exitDy=20;exitPerimeter=0;" edge="1" parent="1" source="dEbl5OzVnvIsQNyByaN4-42">
          <mxGeometry relative="1" as="geometry">
            <mxPoint x="780" y="230" as="targetPoint" />
            <mxPoint x="690" y="280" as="sourcePoint" />
          </mxGeometry>
        </mxCell>
        <mxCell id="dEbl5OzVnvIsQNyByaN4-51" value="An System abschicken" style="ellipse;whiteSpace=wrap;html=1;" vertex="1" parent="1">
          <mxGeometry x="389" y="340" width="140" height="70" as="geometry" />
        </mxCell>
        <mxCell id="dEbl5OzVnvIsQNyByaN4-52" value="extends" style="edgeStyle=orthogonalEdgeStyle;rounded=0;orthogonalLoop=1;jettySize=auto;html=1;entryX=1;entryY=0.5;entryDx=0;entryDy=0;dashed=1;curved=1;exitX=0.5;exitY=1;exitDx=0;exitDy=0;" edge="1" parent="1" source="dEbl5OzVnvIsQNyByaN4-40" target="dEbl5OzVnvIsQNyByaN4-51">
          <mxGeometry x="0.0261" relative="1" as="geometry">
            <mxPoint x="820" y="300" as="sourcePoint" />
            <mxPoint x="750" y="440" as="targetPoint" />
            <Array as="points">
              <mxPoint x="590" y="350" />
              <mxPoint x="590" y="360" />
              <mxPoint x="570" y="360" />
              <mxPoint x="570" y="375" />
            </Array>
            <mxPoint as="offset" />
          </mxGeometry>
        </mxCell>
        <mxCell id="dEbl5OzVnvIsQNyByaN4-53" value="&lt;div align=&quot;left&quot;&gt;&lt;font&gt;Button&lt;/font&gt;&lt;/div&gt;" style="shape=note;size=20;whiteSpace=wrap;html=1;align=left;" vertex="1" parent="1">
          <mxGeometry x="608" y="370" width="71" height="30" as="geometry" />
        </mxCell>
        <mxCell id="dEbl5OzVnvIsQNyByaN4-54" style="rounded=0;orthogonalLoop=1;jettySize=auto;html=1;endArrow=none;startFill=0;dashed=1;exitX=0;exitY=0;exitDx=0;exitDy=0;exitPerimeter=0;" edge="1" parent="1" source="dEbl5OzVnvIsQNyByaN4-53">
          <mxGeometry relative="1" as="geometry">
            <mxPoint x="570" y="370" as="targetPoint" />
            <mxPoint x="740" y="350" as="sourcePoint" />
          </mxGeometry>
        </mxCell>
        <mxCell id="dEbl5OzVnvIsQNyByaN4-57" value="include" style="rounded=0;orthogonalLoop=1;jettySize=auto;html=1;entryX=1;entryY=0;entryDx=0;entryDy=0;dashed=1;exitX=0;exitY=1;exitDx=0;exitDy=0;" edge="1" parent="1" source="dEbl5OzVnvIsQNyByaN4-51" target="dEbl5OzVnvIsQNyByaN4-56">
          <mxGeometry relative="1" as="geometry">
            <mxPoint x="340" y="390" as="sourcePoint" />
          </mxGeometry>
        </mxCell>
        <mxCell id="dEbl5OzVnvIsQNyByaN4-56" value="Erhält und verifiziert die Daten" style="ellipse;whiteSpace=wrap;html=1;" vertex="1" parent="1">
          <mxGeometry x="220" y="450" width="140" height="70" as="geometry" />
        </mxCell>
        <mxCell id="dEbl5OzVnvIsQNyByaN4-58" value="Projektauschreibung erstellt und in Cloud gespeichert" style="ellipse;whiteSpace=wrap;html=1;" vertex="1" parent="1">
          <mxGeometry x="440" y="450" width="140" height="70" as="geometry" />
        </mxCell>
        <mxCell id="dEbl5OzVnvIsQNyByaN4-59" value="include" style="rounded=0;orthogonalLoop=1;jettySize=auto;html=1;entryX=0;entryY=0.5;entryDx=0;entryDy=0;dashed=1;exitX=1;exitY=0.5;exitDx=0;exitDy=0;" edge="1" parent="1" source="dEbl5OzVnvIsQNyByaN4-56" target="dEbl5OzVnvIsQNyByaN4-58">
          <mxGeometry relative="1" as="geometry">
            <mxPoint x="441" y="420" as="sourcePoint" />
            <mxPoint x="370" y="480" as="targetPoint" />
          </mxGeometry>
        </mxCell>
      </root>
    </mxGraphModel>
  </diagram>
</mxfile>
